<?xml version="1.0" encoding="UTF-8" standalone="no"?>
<!-- Created with Inkscape (http://www.inkscape.org/) -->

<svg
   xmlns:dc="http://purl.org/dc/elements/1.1/"
   xmlns:cc="http://creativecommons.org/ns#"
   xmlns:rdf="http://www.w3.org/1999/02/22-rdf-syntax-ns#"
   xmlns:svg="http://www.w3.org/2000/svg"
   xmlns="http://www.w3.org/2000/svg"
   xmlns:sodipodi="http://sodipodi.sourceforge.net/DTD/sodipodi-0.dtd"
   xmlns:inkscape="http://www.inkscape.org/namespaces/inkscape"
   id="svg2"
   version="1.1"
   inkscape:version="0.47 r22583"
   width="455.77542"
   height="142.54448"
   sodipodi:docname="logo_numpaar.vector.svg">
  <metadata
     id="metadata8">
    <rdf:RDF>
      <cc:Work
         rdf:about="">
        <dc:format>image/svg+xml</dc:format>
        <dc:type
           rdf:resource="http://purl.org/dc/dcmitype/StillImage" />
        <dc:title />
      </cc:Work>
    </rdf:RDF>
  </metadata>
  <defs
     id="defs6">
    <inkscape:perspective
       sodipodi:type="inkscape:persp3d"
       inkscape:vp_x="0 : 0.5 : 1"
       inkscape:vp_y="0 : 1000 : 0"
       inkscape:vp_z="1 : 0.5 : 1"
       inkscape:persp3d-origin="0.5 : 0.33333333 : 1"
       id="perspective10" />
    <inkscape:perspective
       id="perspective3627"
       inkscape:persp3d-origin="0.5 : 0.33333333 : 1"
       inkscape:vp_z="1 : 0.5 : 1"
       inkscape:vp_y="0 : 1000 : 0"
       inkscape:vp_x="0 : 0.5 : 1"
       sodipodi:type="inkscape:persp3d" />
    <inkscape:perspective
       id="perspective3653"
       inkscape:persp3d-origin="0.5 : 0.33333333 : 1"
       inkscape:vp_z="1 : 0.5 : 1"
       inkscape:vp_y="0 : 1000 : 0"
       inkscape:vp_x="0 : 0.5 : 1"
       sodipodi:type="inkscape:persp3d" />
    <inkscape:perspective
       id="perspective3680"
       inkscape:persp3d-origin="0.5 : 0.33333333 : 1"
       inkscape:vp_z="1 : 0.5 : 1"
       inkscape:vp_y="0 : 1000 : 0"
       inkscape:vp_x="0 : 0.5 : 1"
       sodipodi:type="inkscape:persp3d" />
    <inkscape:perspective
       id="perspective3703"
       inkscape:persp3d-origin="0.5 : 0.33333333 : 1"
       inkscape:vp_z="1 : 0.5 : 1"
       inkscape:vp_y="0 : 1000 : 0"
       inkscape:vp_x="0 : 0.5 : 1"
       sodipodi:type="inkscape:persp3d" />
    <inkscape:perspective
       id="perspective3728"
       inkscape:persp3d-origin="0.5 : 0.33333333 : 1"
       inkscape:vp_z="1 : 0.5 : 1"
       inkscape:vp_y="0 : 1000 : 0"
       inkscape:vp_x="0 : 0.5 : 1"
       sodipodi:type="inkscape:persp3d" />
    <inkscape:perspective
       id="perspective3750"
       inkscape:persp3d-origin="0.5 : 0.33333333 : 1"
       inkscape:vp_z="1 : 0.5 : 1"
       inkscape:vp_y="0 : 1000 : 0"
       inkscape:vp_x="0 : 0.5 : 1"
       sodipodi:type="inkscape:persp3d" />
    <inkscape:perspective
       id="perspective3773"
       inkscape:persp3d-origin="0.5 : 0.33333333 : 1"
       inkscape:vp_z="1 : 0.5 : 1"
       inkscape:vp_y="0 : 1000 : 0"
       inkscape:vp_x="0 : 0.5 : 1"
       sodipodi:type="inkscape:persp3d" />
    <inkscape:perspective
       id="perspective3795"
       inkscape:persp3d-origin="0.5 : 0.33333333 : 1"
       inkscape:vp_z="1 : 0.5 : 1"
       inkscape:vp_y="0 : 1000 : 0"
       inkscape:vp_x="0 : 0.5 : 1"
       sodipodi:type="inkscape:persp3d" />
    <inkscape:perspective
       id="perspective3820"
       inkscape:persp3d-origin="0.5 : 0.33333333 : 1"
       inkscape:vp_z="1 : 0.5 : 1"
       inkscape:vp_y="0 : 1000 : 0"
       inkscape:vp_x="0 : 0.5 : 1"
       sodipodi:type="inkscape:persp3d" />
    <inkscape:perspective
       id="perspective3841"
       inkscape:persp3d-origin="0.5 : 0.33333333 : 1"
       inkscape:vp_z="1 : 0.5 : 1"
       inkscape:vp_y="0 : 1000 : 0"
       inkscape:vp_x="0 : 0.5 : 1"
       sodipodi:type="inkscape:persp3d" />
    <inkscape:perspective
       id="perspective3865"
       inkscape:persp3d-origin="0.5 : 0.33333333 : 1"
       inkscape:vp_z="1 : 0.5 : 1"
       inkscape:vp_y="0 : 1000 : 0"
       inkscape:vp_x="0 : 0.5 : 1"
       sodipodi:type="inkscape:persp3d" />
    <inkscape:perspective
       id="perspective3889"
       inkscape:persp3d-origin="0.5 : 0.33333333 : 1"
       inkscape:vp_z="1 : 0.5 : 1"
       inkscape:vp_y="0 : 1000 : 0"
       inkscape:vp_x="0 : 0.5 : 1"
       sodipodi:type="inkscape:persp3d" />
    <inkscape:perspective
       id="perspective2839"
       inkscape:persp3d-origin="0.5 : 0.33333333 : 1"
       inkscape:vp_z="1 : 0.5 : 1"
       inkscape:vp_y="0 : 1000 : 0"
       inkscape:vp_x="0 : 0.5 : 1"
       sodipodi:type="inkscape:persp3d" />
    <inkscape:perspective
       id="perspective3643"
       inkscape:persp3d-origin="0.5 : 0.33333333 : 1"
       inkscape:vp_z="1 : 0.5 : 1"
       inkscape:vp_y="0 : 1000 : 0"
       inkscape:vp_x="0 : 0.5 : 1"
       sodipodi:type="inkscape:persp3d" />
    <inkscape:perspective
       id="perspective3665"
       inkscape:persp3d-origin="0.5 : 0.33333333 : 1"
       inkscape:vp_z="1 : 0.5 : 1"
       inkscape:vp_y="0 : 1000 : 0"
       inkscape:vp_x="0 : 0.5 : 1"
       sodipodi:type="inkscape:persp3d" />
    <inkscape:perspective
       id="perspective3687"
       inkscape:persp3d-origin="0.5 : 0.33333333 : 1"
       inkscape:vp_z="1 : 0.5 : 1"
       inkscape:vp_y="0 : 1000 : 0"
       inkscape:vp_x="0 : 0.5 : 1"
       sodipodi:type="inkscape:persp3d" />
    <inkscape:perspective
       id="perspective3712"
       inkscape:persp3d-origin="0.5 : 0.33333333 : 1"
       inkscape:vp_z="1 : 0.5 : 1"
       inkscape:vp_y="0 : 1000 : 0"
       inkscape:vp_x="0 : 0.5 : 1"
       sodipodi:type="inkscape:persp3d" />
    <inkscape:perspective
       id="perspective3627-3"
       inkscape:persp3d-origin="0.5 : 0.33333333 : 1"
       inkscape:vp_z="1 : 0.5 : 1"
       inkscape:vp_y="0 : 1000 : 0"
       inkscape:vp_x="0 : 0.5 : 1"
       sodipodi:type="inkscape:persp3d" />
  </defs>
  <sodipodi:namedview
     pagecolor="#ffffff"
     bordercolor="#666666"
     borderopacity="1"
     objecttolerance="10"
     gridtolerance="10"
     guidetolerance="10"
     inkscape:pageopacity="0"
     inkscape:pageshadow="2"
     inkscape:window-width="1360"
     inkscape:window-height="718"
     id="namedview4"
     showgrid="false"
     inkscape:snap-global="false"
     inkscape:zoom="1.4142136"
     inkscape:cx="178.6317"
     inkscape:cy="91.936861"
     inkscape:window-x="0"
     inkscape:window-y="0"
     inkscape:window-maximized="1"
     inkscape:current-layer="svg2" />
  <path
     id="path3642"
     style="fill:#000000;fill-opacity:0;stroke:#152012;stroke-width:6.5;stroke-linecap:round;stroke-linejoin:miter;stroke-miterlimit:4;stroke-opacity:1;stroke-dasharray:none"
     d="m 137.7785,76.80608 c 0,0 0,2.79437 0,5.86604 0,3.07168 -0.17065,3.75427 9.38566,3.75427 M 105.92674,41.35015 c -3.01626,0 -4.06973,1.47293 -4.06973,4.58989 0,0 0,29.99147 0,32.89249 0,2.90102 3.75427,7.59386 7.84983,7.59386 4.09556,0 11.04948,0 11.04948,0 4.59329,0 4.57906,0 9.17235,0 4.09556,0 7.84983,-4.69284 7.84983,-7.59386 0,-2.90102 0,-21.92833 0,-32.89249 0,-3.11696 1.1223,-4.58989 4.3987,-4.58989"
     sodipodi:nodetypes="cscccsscsssc" />
  <path
     id="path3642-8-0-7"
     style="fill:#000000;fill-opacity:0;stroke:#152012;stroke-width:6.5;stroke-linecap:round;stroke-linejoin:miter;stroke-miterlimit:4;stroke-opacity:1;stroke-dasharray:none"
     d="m 211.90087,88.90126 c -6.97168,0 -6.04089,-6.60794 -6.04089,-8.65572 0,-15.70882 0,-12.04265 0,-27.75147 0,-9.05 -5.17662,-8.326 -7.602,-8.326 -9.04155,0 -15.82892,5.03752 -15.82892,5.03752 m -18.3692,-9.69382 c -1.49321,0 -2.00723,1.4101 -2.00723,2.87114 0,0 0,36.02347 0,38.92449 0,2.04778 -0.85324,7.59386 3.24232,7.59386 M 162.8632,47.95559 c 0,0 8.44684,-4.02885 10.86017,-3.78752 2.41334,0.24133 7.602,-0.724 7.602,8.326 0,9.05 0,36.40719 0,36.40719"
     sodipodi:nodetypes="cccscccsccssc" />
  <path
     id="path3718-5-2"
     style="fill:#000000;fill-opacity:0;stroke:#152012;stroke-width:6.5;stroke-linecap:round;stroke-linejoin:miter;stroke-miterlimit:4;stroke-opacity:1;stroke-dasharray:none"
     d="m 228.02532,74.31873 c 0,3.08675 1.5625,11.42258 8.5625,11.42258 7,0 15.30563,0 15.30563,0 4.98626,0 15.51374,-1.01768 15.51374,-8.89367 0,-7.87599 0,-21.42717 0,-29.30316 0,-7.87599 -10.52748,-8.89367 -15.51374,-8.89367 -4.98626,0 -3.36813,0 -8.35439,0 -4.98626,0 -15.51374,1.01768 -15.51374,8.89367 l 0,78.50001 c 0,9.12499 -6.3125,11.06249 -10.5625,13.24999"
     sodipodi:nodetypes="cccccccscc" />
  <path
     id="path3810-8"
     style="color:#000000;fill:#000000;fill-opacity:0;stroke:#152012;stroke-width:6.5;stroke-linecap:round;stroke-linejoin:miter;stroke-miterlimit:4;stroke-opacity:1;stroke-dasharray:none;stroke-dashoffset:0;marker:none;visibility:visible;display:inline;overflow:visible;enable-background:accumulate"
     d="m 325.01812,56.93454 c 0,-4.11482 -3.89145,-13.98982 -9.20542,-13.98982 -3.6875,0 -22.06042,0 -22.06042,0 -4.56212,0 -11.37708,0.0422 -11.37708,7.91715 0,7.875 0,7.125 0,7.125 0,0 0,13.22892 0,13.22892 0,0 0,-0.75 0,7.125 0,7.87495 6.81496,7.91715 11.37708,7.91715 0,0 17.24792,0 21.99792,0 4.75,0 9.26792,-5.46671 9.26792,-7.93139 m 10.88566,10.07344 c -9.55631,0 -10.88566,-4.99509 -10.88566,-8.06677 0,-3.07167 0,-3.17854 0,-3.17854 0,0 0,-22.67016 0,-22.67016 0,0 0,-0.10687 0,-3.17854 0,-4.50961 2.6361,-8.25427 8.07316,-8.25427"
     sodipodi:nodetypes="cscsccscsccsccsc" />
  <path
     id="path3879"
     style="color:#000000;fill:#000000;fill-opacity:0;stroke:#152012;stroke-width:6.5;stroke-linecap:round;stroke-linejoin:miter;stroke-miterlimit:4;stroke-opacity:1;stroke-dasharray:none;stroke-dashoffset:0;marker:none;visibility:visible;display:inline;overflow:visible;enable-background:accumulate"
     d="m 417.55372,75.69766 c 0,0 0,-5.43531 0,-15.25 0,-5 16.40703,-18.04451 34.9717,-18.04451 m -34.9717,0.74134 0,37.875 c 0,4.50694 0.1875,7.5625 -4.0625,9.75"
     sodipodi:nodetypes="cscccc" />
  <path
     id="path3810-8-0"
     style="color:#000000;fill:#000000;fill-opacity:0;stroke:#152012;stroke-width:6.5;stroke-linecap:round;stroke-linejoin:miter;stroke-miterlimit:4;stroke-opacity:1;stroke-dasharray:none;stroke-dashoffset:0;marker:none;visibility:visible;display:inline;overflow:visible;enable-background:accumulate"
     d="m 390.98098,56.93454 c 0,-4.11482 -3.89145,-13.98982 -9.20542,-13.98982 -3.6875,0 -22.06042,0 -22.06042,0 -4.56212,0 -11.37708,0.0422 -11.37708,7.91715 0,7.875 0,7.125 0,7.125 0,0 0,13.22892 0,13.22892 0,0 0,-0.75 0,7.125 0,7.87495 6.81496,7.91715 11.37708,7.91715 0,0 17.24792,0 21.99792,0 4.75,0 9.26792,-5.46671 9.26792,-7.93139 m 10.88566,10.07344 c -9.55631,0 -10.88566,-4.99509 -10.88566,-8.06677 0,-3.07167 0,-3.17854 0,-3.17854 0,0 0,-22.67016 0,-22.67016 0,0 0,-0.10687 0,-3.17854 0,-4.50961 2.6361,-8.25427 8.07316,-8.25427"
     sodipodi:nodetypes="cscsccscsccsccsc" />
  <g
     id="g3641"
     transform="translate(111.65685,-36.960814)">
    <path
       sodipodi:nodetypes="ccccccccc"
       id="path2838-8"
       d="m -84.718036,120.87553 59.25,1.90625 4,-78.99998 m -81.999994,76.49998 4.749994,0.15625 2.5,-63.93748 c 2.03395,-5.64009 6.614193,-6.60722 12.1875,-4.4375 l 34.5625,39.31249 3.687499,-48.99999"
       style="fill:none;stroke:#152012;stroke-width:6;stroke-miterlimit:4;stroke-opacity:1;stroke-dasharray:none" />
    <path
       id="path2838"
       d="m -111.65685,36.960814 8,81.749996 4.749996,0.15625 2.5,-63.937496 c 2.03395,-5.640088 6.614193,-6.607218 12.1875,-4.4375 l 34.5625,39.3125 3.6875,-49 -65.687496,-3.84375 z m 79.624996,4.65625 -5.25,65.187496 c -1.505196,6.86464 -9.278158,7.08125 -12.15625,4.03125 l -33.625,-38.281246 -1.84375,46.749996 59.25,1.90625 4,-78.999996 -10.375,-0.59375 z"
       style="fill:#35e137;fill-opacity:1;stroke:none" />
  </g>
</svg>
